<?xml version="1.0"?>
<svg xmlns="http://www.w3.org/2000/svg" xmlns:xlink="http://www.w3.org/1999/xlink" xmlns:svgjs="http://svgjs.com/svgjs" version="1.1" width="512" height="512" x="0" y="0" viewBox="0 0 512 512" style="enable-background:new 0 0 512 512" xml:space="preserve" class=""><g>
<circle xmlns="http://www.w3.org/2000/svg" style="" cx="256" cy="256" r="256" fill="#ffffff" class=""/>
<g xmlns="http://www.w3.org/2000/svg">
	<path style="" d="M256,325.818h-46.545l-61.631,13.368c-11.036,3.309-19.917,11.543-24.055,22.3l-16.714,43.459H256   V325.818z" fill="#ff6b6b"  class=""/>
	<path style="" d="M256,325.818h46.545l61.631,13.368c11.036,3.309,19.917,11.543,24.055,22.3l16.714,43.459H256   V325.818z" fill="#ff6b6b" class=""/>
</g>
<path xmlns="http://www.w3.org/2000/svg" style="" d="M256,321.164v83.782h9.309l37.236-79.127V286.05C289.317,306.469,271.272,316.072,256,321.164z" fill="#f7b4b4"/>
<polygon xmlns="http://www.w3.org/2000/svg" style="" points="287.902,356.938 290.853,350.664 256,365.186 256,370.232 " fill="#3e3e3f"/>
<path xmlns="http://www.w3.org/2000/svg" style="" d="M209.455,285.938v39.88l37.236,79.127H256v-83.782C240.714,316.067,222.678,306.404,209.455,285.938z  " fill="#fbc8c8"  class=""/>
<path xmlns="http://www.w3.org/2000/svg" style="" d="M335.127,316.509c-25.014-31.265,0.666-32.582,0.666-83.782l-0.27-37.236v-9.309  c-2.746-41.579-37.25-74.473-79.523-74.473s-77.042,32.894-79.793,74.473v9.309c0,13.964,0,13.964,0,37.236  c0,51.2,25.679,52.517,0.666,83.782c-18.618,23.273-55.855,55.855-4.655,88.436h37.236c-65.164-32.582,14.392-41.435,9.309-83.782  c-5.548-46.215-18.618-32.582-18.618-69.818c0-23.273,0-55.855,0-55.855h8.304c18.288,0,35.584-8.313,47.011-22.593l0.54-0.68  l0.545,0.68c11.427,14.28,28.719,22.593,47.011,22.593h8.299c0,0,0,32.582,0,55.855c0,37.236-13.07,23.603-18.618,69.818  c-5.083,42.347,74.473,51.2,9.309,83.782h37.236C390.982,372.364,353.745,339.782,335.127,316.509z" fill="#3e3e3f"/>
<path xmlns="http://www.w3.org/2000/svg" style="" d="M325.818,209.455c-1.289,0-2.946,0-4.655,0c0-0.033,0-0.065,0-0.098  c-0.009-4.701-0.084-9.332-0.284-13.866h-17.329c-18.292,0-35.589-8.313-47.011-22.593l-0.54-0.68l0,0l-0.545,0.68  c-11.422,14.28-28.719,22.593-47.006,22.593H191.12c-0.195,4.534-0.275,9.165-0.284,13.866c0,0.033,0,0.065,0,0.098  c-1.713,0-3.365,0-4.655,0c-4.655,0-9.309,5.171-9.309,10.342c0,14.387,4.022,33.187,19.447,35.854  c11.366,42.361,38.251,58.368,59.681,65.513c21.43-7.145,48.314-23.152,59.681-65.513c15.425-2.662,19.447-21.467,19.447-35.854  C335.127,214.626,330.473,209.455,325.818,209.455z" fill="#fbc8c8" class=""/>
<path xmlns="http://www.w3.org/2000/svg" style="" d="M255.455,172.898c-11.422,14.28-28.719,22.593-47.006,22.593H191.12  c-0.195,4.534-0.275,9.165-0.284,13.866c0,0.033,0,0.065,0,0.098c-1.713,0-3.365,0-4.655,0c-4.655,0-9.309,5.171-9.309,10.342  c0,14.387,4.022,33.187,19.447,35.854c11.366,42.361,38.251,58.368,59.681,65.513V172.218L255.455,172.898z" fill="#fbd7d7" class=""/>
<g xmlns="http://www.w3.org/2000/svg">
	<path style="" d="M242.036,218.764c0-5.139-4.17-9.309-9.309-9.309c-0.009,0-0.019,0-0.028,0   c0.005,0.098,0.028,0.195,0.028,0.289c0,5.134-4.152,9.29-9.281,9.309c0.158,5.004,4.24,9.021,9.281,9.021   C237.866,228.073,242.036,223.902,242.036,218.764z" fill="#3e3e3f"/>
	<path style="" d="M288.554,218.764c0-5.139-4.171-9.309-9.309-9.309c-0.009,0-0.019,0-0.028,0   c0.005,0.098,0.028,0.191,0.028,0.289c0,5.134-4.152,9.29-9.281,9.309c0.154,5.004,4.236,9.021,9.281,9.021   C284.383,228.073,288.554,223.902,288.554,218.764z" fill="#3e3e3f"/>
</g>
<path xmlns="http://www.w3.org/2000/svg" style="" d="M232.727,269.964h46.545c0,0,0,13.964-23.273,13.964S232.727,269.964,232.727,269.964z" fill="#f79392" class=""/>
<polygon xmlns="http://www.w3.org/2000/svg" style="" points="221.147,350.664 224.098,356.938 256,370.232 256,365.186 " fill="#3e3e3f"/>
<path xmlns="http://www.w3.org/2000/svg" style="" d="M256,365.754l6.451,15.574c1.08,2.611,0.484,5.613-1.513,7.61c-2.728,2.728-7.145,2.728-9.872,0  c-1.997-1.997-2.593-4.999-1.513-7.61L256,365.754z" fill="#ff6b6b" class=""/>
<g xmlns="http://www.w3.org/2000/svg">
</g>
<g xmlns="http://www.w3.org/2000/svg">
</g>
<g xmlns="http://www.w3.org/2000/svg">
</g>
<g xmlns="http://www.w3.org/2000/svg">
</g>
<g xmlns="http://www.w3.org/2000/svg">
</g>
<g xmlns="http://www.w3.org/2000/svg">
</g>
<g xmlns="http://www.w3.org/2000/svg">
</g>
<g xmlns="http://www.w3.org/2000/svg">
</g>
<g xmlns="http://www.w3.org/2000/svg">
</g>
<g xmlns="http://www.w3.org/2000/svg">
</g>
<g xmlns="http://www.w3.org/2000/svg">
</g>
<g xmlns="http://www.w3.org/2000/svg">
</g>
<g xmlns="http://www.w3.org/2000/svg">
</g>
<g xmlns="http://www.w3.org/2000/svg">
</g>
<g xmlns="http://www.w3.org/2000/svg">
</g>
</g></svg>
